<?xml version="1.0" standalone="no"?><!DOCTYPE svg PUBLIC "-//W3C//DTD SVG 1.1//EN" "http://www.w3.org/Graphics/SVG/1.1/DTD/svg11.dtd"><svg t="1578834529195" class="icon" viewBox="0 0 1024 1024" version="1.1" xmlns="http://www.w3.org/2000/svg" p-id="3590" xmlns:xlink="http://www.w3.org/1999/xlink" width="64" height="64"><defs><style type="text/css"></style></defs><path d="M296.50432 880.41984V390.1952c0-19.54816-13.90592-34.59072-30.58176-34.59072H174.16704c-16.68608 0-30.58176 16.54784-30.58176 34.59072v490.22464h152.91904z m194.63168 0V179.66592c0-19.53792-13.89568-36.08576-30.58176-36.08576H368.7936c-16.67584 0-30.58176 16.54784-30.58176 36.08576v700.75392h152.92416z m194.6368 0v-309.78048c0-19.53792-13.90592-36.09088-30.59712-36.09088h-91.72992c-16.70144 0-30.59712 16.54784-30.59712 36.09088v309.78048h152.92416z m194.64192 0V390.1952c0-19.54816-13.90592-34.59072-30.59712-34.59072h-91.7504c-16.6912 0-30.57152 16.54784-30.57152 34.59072v490.22464h152.91904z" p-id="3591" fill="#d81e06"></path></svg>